<?xml version="1.0" encoding="utf-8"?>
<!-- Generator: Adobe Illustrator 18.1.0, SVG Export Plug-In . SVG Version: 6.00 Build 0)  -->
<svg version="1.1" id="Layer_1" xmlns="http://www.w3.org/2000/svg" xmlns:xlink="http://www.w3.org/1999/xlink" x="0px" y="0px"
	 viewBox="0 0 500 500" enable-background="new 0 0 500 500" xml:space="preserve">
<path fill="#010101" d="M499.8,57.4c-1.5-8.6-11.1-18.8-48.7-17.8c-54,1.3-96.1,44.5-119.4,75.3c-5.7-2.2-10.3-2.8-12-3.1
	l-24.2-24.2l-95.1,0.5l-81.2,81.4L7.5,281c-10,10-10,26.5,0,36.4L143,453c10,10,26.5,10,36.4,0L291,341.4l81.2-81.2l0,0l0.5-95.1
	l-14.3-14.3c-0.1-4.9-0.9-9-2.3-12.8c22-9.4,45.2-16.7,81.5-27.8C473.5,99,502.6,74.4,499.8,57.4z M318.4,151.3
	c-0.5-0.8-1.1-1.5-1.8-2.2c-0.3-0.3-0.7-0.5-0.9-0.8c0.1-0.1,0.1-0.1,0.3-0.3c0.1-0.1,1.5-2.7,4-6.7c0.8,0.7,1.8,1.2,2.4,2
	c1.2,1.2,2.3,2.6,3.1,3.9c-2.3,1.2-4.6,2.6-6.9,3.8C318.7,151.1,318.6,151.2,318.4,151.3z M334.1,126.4l-2.4-2.4
	c0.7-0.9,1.2-1.8,2-2.7c5.7,2.7,11.7,7,15.5,14c-1.3,0.7-2.8,1.3-4.2,2L334.1,126.4z M328.5,119.2c-0.3,0.3-0.4,0.7-0.7,0.9
	l-1.6-1.6C326.9,118.7,327.7,119,328.5,119.2z M322.5,178.2c-9.6,9.6-25.2,9.6-35,0c-9.6-9.6-9.6-25.2,0-35c7.6-7.6,18.9-9,28.1-4.7
	c-2.4,3.9-3.8,6.5-4.2,7l0,0c-5.9-2.6-13.1-1.3-17.9,3.5c-6.3,6.3-6.3,16.9,0,23.2s16.9,6.3,23.2,0c4.6-4.6,5.8-11.1,3.9-16.7
	c0.3,0,0.5,0,0.8-0.1c2.3-1.3,4.5-2.6,6.6-3.8C331.4,160.5,329.6,171,322.5,178.2z M348.8,141.1c0.8-0.4,1.6-0.8,2.4-1.2
	c0.5,1.5,0.9,3.2,1.3,4.9L348.8,141.1z M436.1,105.1c-35.6,10.9-59.5,18.4-82.1,28.1c-4.2-7.8-10.9-12.8-17.3-16.1
	c23.1-30,64-71.1,114.6-72.5c26-0.7,42,4.2,43.5,13.5C497.1,72.4,468.5,95.1,436.1,105.1z"/>
</svg>
